<svg width="28" height="51" viewBox="0 0 28 51" fill="none" xmlns="http://www.w3.org/2000/svg">
<path id="Vector" d="M23.6845 50.0786C22.6955 49.9473 21.9526 49.0544 21.9495 47.9943C21.9495 47.9943 19.9094 46.9106 20.4031 41.28C20.8969 35.6493 18.9418 32.881 18.9418 32.881C16.6239 29.3979 15.098 25.39 14.4844 21.1728C13.6587 20.7986 11.7243 22.2851 11.7243 22.2851C8.20222 24.0693 6.52474 21.4298 6.02565 20.3958C6.30473 20.6086 7.05068 20.5458 9.06938 18.8636C12.3967 16.0845 14.5043 17.5776 14.5043 17.5776C16.5498 14.1935 15.8667 13.582 18.1744 10.0242C20.4821 6.46642 27.6773 9.44771 27.6812 9.44771V50.1348L23.6845 50.0786ZM23.2521 28.2199C23.2636 28.1743 24.1805 24.5554 23.9375 23.6901C23.9375 23.6901 23.1094 26.7285 22.8542 26.4088C22.8542 26.4088 17.3234 24.9892 16.7722 24.1329C16.7722 24.1329 18.1015 27.6157 19.9362 28.1473C20.5872 27.9948 21.2503 27.9101 21.9165 27.8946C22.3826 27.8546 22.8489 27.9682 23.2521 28.2199ZM5.85008 20.0093C5.89878 20.1437 5.95537 20.2746 6.01951 20.4015C5.96495 20.3542 5.9213 20.2943 5.89193 20.2263C5.86255 20.1583 5.84824 20.0841 5.85008 20.0093ZM3.93338 13.0609C-2.36409 7.91138 1.48003 0 1.48003 0C2.042 3.96956 3.14601 6.74779 6.1215 8.73826C9.32696 10.8787 16.4563 10.6496 16.4563 10.6496L14.479 15.3465C13.7175 15.4658 12.9488 15.5257 12.179 15.526C9.26944 15.526 6.41586 14.6714 3.93338 13.0577V13.0609Z" fill="white"/>
</svg>
