<svg width="170" height="55" viewBox="0 0 170 55" fill="none" xmlns="http://www.w3.org/2000/svg">
<path d="M24.6723 52.878C23.628 52.7394 22.8436 51.7965 22.8403 50.6772C22.8403 50.6772 20.6862 49.5329 21.2075 43.5876C21.7288 37.6422 19.6645 34.719 19.6645 34.719C17.217 31.0412 15.6059 26.8093 14.9579 22.3564C14.086 21.9612 12.0436 23.5309 12.0436 23.5309C8.32458 25.4148 6.55332 22.6277 6.02633 21.5359C6.32102 21.7606 7.10866 21.6943 9.24021 19.9181C12.7536 16.9837 14.979 18.5602 14.979 18.5602C17.1388 14.9869 16.4175 14.3412 18.8542 10.5845C21.2909 6.8279 28.8884 9.97584 28.8924 9.97584V52.9374L24.6723 52.878ZM24.2158 29.7974C24.2279 29.7492 25.1961 25.928 24.9394 25.0144C24.9394 25.0144 24.0651 28.2226 23.7956 27.8851C23.7956 27.8851 17.9556 26.3861 17.3736 25.482C17.3736 25.482 18.7773 29.1594 20.7145 29.7208C21.4018 29.5598 22.1021 29.4703 22.8055 29.4539C23.2976 29.4117 23.79 29.5316 24.2158 29.7974ZM5.84094 21.1278C5.89237 21.2697 5.95212 21.408 6.01985 21.542C5.96224 21.4921 5.91615 21.4288 5.88513 21.357C5.85411 21.2852 5.839 21.2068 5.84094 21.1278ZM3.81711 13.791C-2.8324 8.35363 1.2266 0 1.2266 0C1.81999 4.19146 2.98571 7.12499 6.12754 9.22673C9.51219 11.4869 17.04 11.2449 17.04 11.2449L14.9522 16.2044C14.1481 16.3304 13.3365 16.3936 12.5236 16.3939C9.45145 16.3939 6.43835 15.4915 3.81711 13.7876V13.791Z" fill="white"/>
<path d="M133.399 54.0709C131.437 54.0686 129.557 53.2388 128.169 51.7634C126.782 50.288 126.002 48.2876 126 46.2012V15.1363C126.002 13.0499 126.782 11.0495 128.169 9.57415C129.557 8.09879 131.437 7.2689 133.399 7.2666H162.601C166.685 7.27264 169.994 10.7925 169.999 15.1363V46.1951C170.001 50.5433 166.689 54.0692 162.601 54.0709H133.399ZM128.785 15.1363V46.1951C128.787 47.4984 129.274 48.7476 130.141 49.6691C131.007 50.5906 132.182 51.1093 133.407 51.1116H162.608C163.833 51.1096 165.008 50.591 165.874 49.6693C166.741 48.7478 167.229 47.4985 167.232 46.1951V15.1363C167.226 12.4224 165.159 10.2242 162.608 10.2191H133.405C130.852 10.2216 128.785 12.4215 128.782 15.1363H128.785ZM86.5274 54.0709C82.4432 54.0658 79.133 50.545 79.1281 46.2012V15.1363C79.133 10.7951 82.4389 7.2752 86.5208 7.2666H115.722C119.807 7.27264 123.116 10.7925 123.12 15.1363V46.1951C123.119 50.5417 119.809 54.0649 115.722 54.0709H86.5274ZM81.8973 15.1363V46.1951C81.8991 47.4985 82.3872 48.7478 83.2538 49.6693C84.1204 50.591 85.2957 51.1096 86.5208 51.1116H115.722C116.948 51.1093 118.121 50.5906 118.988 49.6691C119.855 48.7476 120.342 47.4984 120.345 46.1951V15.1363C120.343 13.833 119.855 12.5835 118.989 11.6619C118.122 10.7401 116.948 10.2213 115.722 10.2191H86.5208C85.295 10.2211 84.1204 10.7398 83.2538 11.6616C82.3872 12.5833 81.8991 13.8329 81.8973 15.1363ZM40.3229 54.0709C36.2389 54.0649 32.9294 50.545 32.9238 46.2012V15.1363C32.9294 10.7925 36.2389 7.27264 40.3229 7.2666H69.5245C71.4866 7.2689 73.3672 8.09879 74.7542 9.57415C76.1411 11.0495 76.9214 13.0499 76.9238 15.1363V46.1951C76.922 50.5417 73.6112 54.0658 69.5245 54.0709H40.3229ZM35.6997 15.1355V46.1951C35.7054 48.9083 37.7721 51.1064 40.3229 51.1116H69.5245C70.7496 51.1096 71.9248 50.591 72.7914 49.6693C73.6581 48.7478 74.1456 47.4985 74.148 46.1951V15.1363C74.1462 13.8329 73.6581 12.5833 72.7914 11.6616C71.9248 10.7398 70.7496 10.2211 69.5245 10.2191H40.3229C39.0975 10.2211 37.9228 10.7398 37.0562 11.6612C36.1897 12.5828 35.7018 13.8321 35.6997 15.1355ZM63.234 42.5445H50.1305C48.7202 42.5755 47.3124 42.4049 45.9452 42.0364C44.8905 41.7531 43.9229 41.1839 43.1369 40.3842C42.3771 39.5506 41.8306 38.5241 41.5494 37.4024C41.185 35.9512 41.015 34.4526 41.0443 32.9509V26.6982C41.0165 25.2022 41.1866 23.7095 41.5494 22.2639C41.8278 21.1454 42.3751 20.1234 43.1369 19.2977C43.9258 18.4981 44.8917 17.9233 45.9452 17.6264C47.311 17.2484 48.7193 17.0717 50.1305 17.1012H58.1999C59.6165 17.0724 61.0303 17.2491 62.4021 17.6264C63.4604 17.92 64.4311 18.4951 65.2223 19.2977C65.9788 20.1249 66.5199 21.1471 66.7931 22.2639C67.056 23.3136 67.2088 24.3909 67.249 25.4764L62.2256 25.5883C62.197 25.3314 62.1562 25.0762 62.1033 24.8237C61.9955 24.2589 61.7552 23.7319 61.404 23.292C61.0443 22.9002 60.5896 22.6238 60.0893 22.4946C59.404 22.3202 58.7003 22.2409 57.9959 22.2587L50.3199 22.294C49.6148 22.276 48.9113 22.3561 48.2256 22.5308C47.7246 22.6562 47.2682 22.9325 46.9109 23.3264C46.558 23.7552 46.3175 24.2752 46.2139 24.834C46.0595 25.6207 45.9889 26.4234 46.0034 27.2268V32.4567C45.9899 33.2661 46.0604 34.0746 46.2139 34.8675C46.3232 35.4297 46.5636 35.9535 46.9133 36.3907C47.2731 36.782 47.7289 37.0583 48.2289 37.188C48.9139 37.3624 49.6173 37.4418 50.3215 37.4239H61.0212C61.2476 37.4449 61.4758 37.4118 61.6894 37.327C61.9024 37.2423 62.0947 37.108 62.253 36.934C62.5609 36.4227 62.6979 35.8161 62.6419 35.212V34.6669C62.6419 34.3552 62.5141 34.196 62.253 34.196H52.7501C52.2684 34.196 52.0312 33.9127 52.0312 33.3574V30.6339C52.0312 30.0734 52.2741 29.7953 52.7501 29.7953H66.2764C66.924 29.7953 67.2532 30.1561 67.2599 30.8819V36.9857C67.2599 39.0183 66.9142 40.4533 66.2216 41.2908C65.8674 41.6892 65.4408 42.0064 64.9679 42.2231C64.4944 42.4397 63.9844 42.5511 63.469 42.5505C63.3929 42.5522 63.3144 42.5496 63.234 42.5445ZM91.9476 42.0167C90.8923 41.7345 89.9246 41.1651 89.1389 40.3643C88.38 39.5306 87.8335 38.5041 87.5517 37.3827C87.1878 35.9317 87.0174 34.4334 87.0466 32.9319V26.6793C87.0192 25.1833 87.189 23.6906 87.5517 22.2449C87.8304 21.1266 88.3776 20.1044 89.1389 19.2787C89.9289 18.4796 90.8941 17.9047 91.9476 17.6075C93.3133 17.2304 94.7222 17.0538 96.1329 17.0831H106.16C107.576 17.0545 108.99 17.2309 110.361 17.6075C111.42 17.8999 112.39 18.4752 113.181 19.2787C113.937 20.1073 114.477 21.1307 114.75 22.2484C115.012 23.298 115.165 24.3751 115.206 25.46H110.181C110.154 25.2026 110.112 24.9478 110.059 24.6946C109.952 24.1296 109.712 23.6028 109.361 23.1637C109.001 22.7721 108.546 22.4959 108.046 22.3664C107.361 22.1916 106.657 22.1122 105.952 22.1304H96.3179C95.6138 22.1123 94.9102 22.1916 94.2256 22.3664C93.7229 22.4883 93.2652 22.7658 92.9098 23.1637C92.5544 23.5999 92.314 24.1279 92.2105 24.6946C92.0584 25.4772 91.9884 26.2753 92.0006 27.0745V32.5247C91.9884 33.3235 92.0584 34.1214 92.2105 34.9037C92.3201 35.4657 92.5605 35.9893 92.9098 36.426C93.2695 36.8181 93.7253 37.0944 94.2256 37.2233C94.9102 37.398 95.6138 37.4773 96.3179 37.4601H105.952C106.657 37.4745 107.36 37.3949 108.046 37.2233C108.549 37.1022 109.007 36.8246 109.361 36.426C109.717 35.9938 109.957 35.4685 110.059 34.9037C110.111 34.6695 110.148 34.4095 110.181 34.1382V34.1512H115.206C115.167 35.2441 115.015 36.3291 114.75 37.386C114.481 38.5083 113.939 39.5354 113.178 40.3643C112.39 41.1668 111.418 41.7368 110.358 42.0167C108.985 42.3808 107.572 42.5522 106.157 42.5247H96.1323C96.0215 42.5247 95.9102 42.5247 95.7994 42.5247C94.5007 42.5261 93.2062 42.3554 91.9464 42.0167H91.9476ZM155.246 42.4996H135.979C135.331 42.4996 135.008 42.1337 135.008 41.4078V18.1646C135.008 17.4387 135.331 17.0728 135.979 17.0728H154.668C156.893 17.0728 158.477 17.5685 159.419 18.5598C159.926 19.1721 160.312 19.8864 160.554 20.6604C160.796 21.4344 160.889 22.2524 160.829 23.0656V24.8065C160.928 26.6224 160.144 28.3651 158.753 29.4233C159.493 29.9128 160.093 30.6088 160.487 31.4355C160.882 32.2622 161.056 33.1881 160.99 34.1124V36.2185C160.999 37.1002 160.9 37.9793 160.695 38.8335C160.522 39.5618 160.196 40.2386 159.741 40.8137C159.26 41.3835 158.65 41.8135 157.971 42.0631C157.158 42.3541 156.306 42.5024 155.449 42.5023C155.382 42.5023 155.314 42.5011 155.246 42.4988V42.4996ZM139.971 37.0235C139.971 37.337 140.112 37.4954 140.394 37.4954H153.694C154.349 37.5605 155.004 37.3749 155.542 36.9719C155.945 36.5199 156.144 35.9042 156.091 35.2834V33.8972C156.134 33.2626 155.915 32.6392 155.492 32.1897C154.838 31.73 154.054 31.5268 153.275 31.6163H139.973V31.6086L139.971 37.0235ZM139.971 22.5635V27.6488H153.272C154.042 27.735 154.818 27.5436 155.475 27.1055C155.885 26.6913 156.098 26.104 156.058 25.5048V24.2693C156.108 23.6562 155.9 23.0518 155.491 22.6169C154.958 22.2173 154.309 22.031 153.659 22.0909H140.393C140.111 22.0909 139.971 22.2484 139.971 22.5627L139.971 22.5635Z" fill="white"/>
</svg>
